P3
# 8-bit ppm - RGB
3 3
255
167 172 180 163 168 177 161 166 175
169 178 164 169 178 164 169 178 164
183 166 171 184 166 173 186 167 174
