P3
3 3
255
234
232
236
209
194
193
168
150
148
234
230
231
194
184
187
116
99
101
211
203
206
170
150
150
70
42
43
