P3
# Created by GIMP version 2.10.20 PNM plug-in
2 2
255
10
12
14
56
245
78
46
78
28
90
167
44
