P3
#Created
2 1
255
10
12
13
15
16
17