P3
#Created
1 2
255
10
12
13
15
16
17
